:SAMPLES-PER-SECOND 30
:FULLY-SPECIFIED
:DEGREES
289
root  12.5711 40.213 3.58773 -15.107 86.6387 -16.2531
RightUpLeg  -16.5224 -9.99444 -4.39046
RightLeg  20.303 1.44785 0.364857
RightFoot  -3.60711 -0.423756 5.87747
RightToes  0.00048216 0.542163 -0.142577
Spine  12.6761 0.779047 5.92159
Spine1  5.18303 2.17345 -3.84596
HEad  3.98435 23.366 -7.85906
LeftShoulder1  7.67848 -11.2804 -45.2612
LeftArm  -11.4027 20.1761 -24.3307
LeftForeArm  26.7771 -31.3405 -5.36237
LeftHand  -0.25398 0.0180481 5.50724
RightShoulder  4.79179 8.1113 35.2878
RightArm  -10.2607 -20.4175 39.1023
RightForeArm  0.407711 22.6625 4.92378
RightHand  -0.525877 -1.0282 -13.9089
LeftUpLeg  5.14258 6.79152 2.99987
LeftLeg  8.17753 16.6127 -2.75427
LeftFoot  -13.4358 0.00875491 -3.93563
LeftToes  1.06246e-005 4.65856e-005 -8.18501e-006
290
root  12.3821 40.2849 3.3168 -12.7256 86.1021 -14.2174
RightUpLeg  -15.2512 -9.97111 -3.85448
RightLeg  23.5818 -1.47543 -0.916926
RightFoot  -5.98576 -0.257092 4.67003
RightToes  0.00048216 0.542163 -0.142577
Spine  11.5731 0.829826 5.43708
Spine1  5.46261 1.93249 -2.98908
HEad  4.23768 22.8635 -7.57321
LeftShoulder1  7.59265 -11.0801 -45.3723
LeftArm  -12.0134 20.8912 -23.8796
LeftForeArm  25.6765 -31.9676 -5.57562
LeftHand  -0.25398 0.0180481 5.50724
RightShoulder  4.83323 8.14002 35.5375
RightArm  -7.8364 -20.5037 38.6353
RightForeArm  4.8527 25.1094 5.11727
RightHand  -0.517959 -1.21863 -14.2058
LeftUpLeg  4.93875 6.49646 2.47908
LeftLeg  7.15937 17.4719 -3.1692
LeftFoot  -12.7797 0.0324947 -3.51581
LeftToes  1.06246e-005 4.65856e-005 -8.18501e-006
291
root  12.288 40.2927 3.10501 -7.91425 85.8928 -9.90817
RightUpLeg  -13.3881 -10.4758 -3.61596
RightLeg  25.5372 -2.78362 -1.66411
RightFoot  -7.36658 -0.208363 4.58994
RightToes  0.00048216 0.542163 -0.142577
Spine  10.1286 0.911666 4.94208
Spine1  5.77177 1.82482 -2.6108
HEad  4.17748 21.5363 -7.11256
LeftShoulder1  7.60461 -11.037 -45.5853
LeftArm  -11.6526 21.0474 -23.1168
LeftForeArm  24.6608 -31.5398 -5.53005
LeftHand  -0.25398 0.0180481 5.50724
RightShoulder  4.84388 8.09023 35.8016
RightArm  -7.37759 -20.9057 38.4745
RightForeArm  6.61751 26.9297 5.44589
RightHand  -0.728485 -0.234351 -16.3116
LeftUpLeg  4.41199 6.15323 1.73385
LeftLeg  6.63665 18.1038 -3.41983
LeftFoot  -12.5493 0.0455112 -2.83609
LeftToes  1.06246e-005 4.65856e-005 -8.18501e-006
292
root  12.275 40.2661 2.93252 0.489258 85.8206 -2.02542
RightUpLeg  -10.5033 -11.3661 -3.74925
RightLeg  24.5563 -2.88106 -1.67958
RightFoot  -8.63862 -0.164919 4.43797
RightToes  0.00048216 0.542163 -0.142577
Spine  8.53001 1.04607 4.57638
Spine1  6.11023 1.93981 -2.87539
HEad  3.87106 18.9616 -6.39493
LeftShoulder1  7.58903 -11.0672 -45.3911
LeftArm  -10.7363 20.822 -22.6494
LeftForeArm  24.1235 -30.1304 -5.22441
LeftHand  -0.25398 0.0180481 5.50724
RightShoulder  4.79023 7.99402 35.6867
RightArm  -7.66469 -21.4784 39.0439
RightForeArm  5.23329 27.4893 5.65054
RightHand  -0.985941 0.918619 -18.2062
LeftUpLeg  3.9368 5.79542 0.764982
LeftLeg  6.22874 18.7874 -3.7032
LeftFoot  -12.3897 0.0546643 -2.13287
LeftToes  1.06246e-005 4.65856e-005 -8.18501e-006
293
root  12.3334 40.2824 2.77555 9.82016 85.8816 6.89841
RightUpLeg  -6.81846 -12.4277 -4.16911
RightLeg  20.2489 -2.7409 -1.23396
RightFoot  -10.5472 -0.094077 2.84675
RightToes  0.00048216 0.542163 -0.142577
Spine  7.0312 1.12324 4.41258
Spine1  6.47374 2.08657 -3.2067
HEad  3.0483 14.8483 -5.44527
LeftShoulder1  7.51391 -11.0762 -44.896
LeftArm  -9.67584 20.4462 -22.5707
LeftForeArm  23.8281 -28.222 -4.80016
LeftHand  -0.25398 0.0180481 5.50724
RightShoulder  4.75901 7.98735 35.4448
RightArm  -7.42511 -21.8527 39.6201
RightForeArm  2.69727 27.0039 5.67347
RightHand  -1.04358 1.15415 -18.5564
LeftUpLeg  4.18191 5.25178 -0.225688
LeftLeg  4.78785 19.2917 -4.31544
LeftFoot  -11.804 0.0638085 -1.74919
LeftToes  1.06246e-005 4.65856e-005 -8.18501e-006
294
root  12.4354 40.3342 2.60752 14.2036 85.8513 11.0829
RightUpLeg  -3.53731 -12.095 -4.81794
RightLeg  14.9775 -3.80842 -0.283003
RightFoot  -12.0205 -0.0736433 0.858983
RightToes  0.00048216 0.542163 -0.142577
Spine  5.96419 1.14649 4.86921
Spine1  6.83405 2.26938 -3.63741
HEad  1.50605 9.56287 -4.74971
LeftShoulder1  7.55255 -11.1459 -44.9121
LeftArm  -8.73265 19.9462 -22.3283
LeftForeArm  23.1372 -26.1666 -4.37711
LeftHand  -0.25398 0.0180481 5.50724
RightShoulder  4.82971 8.12109 35.5731
RightArm  -5.96843 -21.5563 39.2852
RightForeArm  0.77964 25.9164 5.52332
RightHand  -0.878132 0.387 -17.6254
LeftUpLeg  4.97029 4.64592 -0.961367
LeftLeg  2.78666 19.7456 -4.90552
LeftFoot  -11.1161 0.0694593 -1.45826
LeftToes  1.06246e-005 4.65856e-005 -8.18501e-006
295
root  12.5336 40.3947 2.4055 8.47021 85.35 5.1572
RightUpLeg  -1.88529 -9.9943 -5.26166
RightLeg  11.5327 -5.66378 1.09395
RightFoot  -11.7542 -0.0791096 0.395483
RightToes  0.00048216 0.542163 -0.142577
Spine  5.34813 1.28226 6.27109
Spine1  7.10285 2.63268 -4.29844
HEad  -0.423773 4.07137 -4.61738
LeftShoulder1  7.76804 -11.3449 -45.6016
LeftArm  -8.04262 19.4336 -22.0561
LeftForeArm  21.6535 -23.8905 -3.99677
LeftHand  -0.25398 0.0180481 5.50724
RightShoulder  4.93631 8.2625 35.9721
RightArm  -3.63578 -20.4468 38.1052
RightForeArm  0.301804 24.4754 5.22368
RightHand  -0.663624 -0.663506 -16.1969
LeftUpLeg  5.45938 4.33099 -1.14172
LeftLeg  1.46991 20.6482 -5.10491
LeftFoot  -10.7035 0.0696264 -0.949299
LeftToes  1.06246e-005 4.65856e-005 -8.18501e-006
296
root  12.608 40.4269 2.20879 -0.116791 84.1961 -3.845
RightUpLeg  -2.04755 -10.1369 -5.19004
RightLeg  10.7983 -4.1668 1.95176
RightFoot  -10.7112 -0.0800908 1.37022
RightToes  0.00048216 0.542163 -0.142577
Spine  4.94533 1.59192 7.5014
Spine1  7.13032 3.019 -4.58005
HEad  -2.32159 -0.692523 -4.66907
LeftShoulder1  7.94521 -11.5424 -46.0467
LeftArm  -7.85938 19.3023 -22.6741
LeftForeArm  20.0069 -21.436 -3.83304
LeftHand  -0.25398 0.0180481 5.50724
RightShoulder  4.9784 8.33067 36.0834
RightArm  -1.50296 -18.9604 36.8909
RightForeArm  0.952062 23.0759 4.92407
RightHand  -0.52094 -1.39937 -14.9627
LeftUpLeg  5.11308 4.47199 -0.85605
LeftLeg  1.53263 21.8784 -4.98131
LeftFoot  -10.7439 0.0673903 -0.533049
LeftToes  1.06246e-005 4.65856e-005 -8.18501e-006
